Land_normalized_Motion_pl13
version=1
nRows=8
nColumns=43
inDegrees=yes
endheader
time		pelvis_tilt		pelvis_list		pelvis_rotation		pelvis_tx		pelvis_ty		pelvis_tz		hip_flexion_r		hip_adduction_r		hip_rotation_r		knee_angle_r		ankle_angle_r		subtalar_angle_r		mtp_angle_r		hip_flexion_l		hip_adduction_l		hip_rotation_l		knee_angle_l		ankle_angle_l		subtalar_angle_l		mtp_angle_l		lumbar_extension		lumbar_bending		lumbar_rotation		neck_flexion		neck_lateral_bending		neck_rotation		arm_flex_r		arm_add_r		arm_rot_r		elbow_flex_r		pro_sup_r		wrist_flex_r		wrist_dev_r		hand_finger_flex_r		arm_flex_l		arm_add_l		arm_rot_l		elbow_flex_l		pro_sup_l		wrist_flex_l		wrist_dev_l		hand_finger_flex_l		
1.794167		-1.919266		7.282798		90.445688		0.036222		0.466118		0.468056		92.269778		-2.031811		3.719104		-132.413656		22.198266		0.434148		11.424661		91.104777		-9.177532		5.109596		-131.148105		19.355584		25.366434		24.342973		-63.102693		-2.662505		1.718798		27.997253		-0.048316		-5.418773		65.546244		-38.731612		13.829331		72.078558		107.173596		-2.654027		-19.245185		-8.372837		57.699649		-28.396577		14.471686		59.439733		125.020979		-43.445700		-11.279057		-0.977569		
1.797146		-2.033743		7.244466		90.547585		0.036352		0.461617		0.466871		92.936627		-2.272740		3.885758		-133.112066		22.295128		0.814142		11.559216		91.641073		-9.499284		5.134726		-131.741446		19.604615		26.042929		24.297708		-63.194069		-2.685499		1.551057		28.437065		-0.110501		-5.497910		67.924199		-38.784318		15.079295		71.607843		106.893683		-2.496760		-19.026047		-8.368957		59.907241		-28.507354		15.365142		59.183580		124.803476		-43.417012		-11.155257		-0.810537		
1.800126		-2.148634		7.286081		90.661123		0.036379		0.457253		0.465669		93.522647		-2.520303		4.092860		-133.823682		22.377820		1.242232		11.710866		92.094235		-9.795445		5.177126		-132.350110		19.849911		26.815800		24.274211		-63.343360		-2.680116		1.374017		28.792574		-0.201016		-5.635431		70.306780		-38.782673		16.316554		71.101789		106.768769		-2.254101		-18.820212		-8.320967		62.103200		-28.628320		16.267923		58.887136		124.621878		-43.309781		-11.058712		-0.773646		
1.803106		-2.208042		7.491211		90.810397		0.036367		0.453403		0.464500		93.864183		-2.808986		4.235073		-134.494096		22.515971		1.838315		12.069167		92.354638		-10.048166		5.305859		-132.930493		20.113529		27.771369		24.120826		-63.662994		-2.584427		1.167870		29.110498		-0.352649		-5.686328		72.856828		-38.692480		17.914367		70.387840		105.928593		-2.467582		-18.757612		-8.556738		64.359185		-28.862874		17.557867		58.543074		123.685701		-43.798543		-10.757224		-0.976185		
1.806086		-2.266339		7.572516		90.973336		0.036470		0.449258		0.463243		94.373426		-3.033862		4.355077		-135.184627		22.554265		2.088494		12.379537		92.783695		-10.262117		5.417095		-133.549717		20.344952		28.324084		23.946077		-63.845426		-2.528741		1.000184		29.522521		-0.320428		-5.809996		75.148115		-38.663492		19.210140		69.875121		105.474063		-2.505093		-18.680524		-8.572587		66.594672		-29.086149		18.751970		58.222131		123.044782		-43.798266		-10.846481		-1.041841		
1.809066		-2.340084		7.776354		91.177651		0.036408		0.445462		0.462079		94.737533		-3.320093		4.510576		-135.858606		22.563587		2.395143		12.804028		93.053429		-10.423178		5.519662		-134.138327		20.564040		29.046364		23.659321		-64.131177		-2.408710		0.823071		29.755908		-0.447990		-5.950684		77.552914		-38.621555		20.700924		69.226509		104.834052		-2.679795		-18.642932		-8.579210		68.883570		-29.209182		20.062934		57.721253		121.989920		-43.991568		-10.845646		-1.203922		
1.812045		-2.412266		7.826009		91.378358		0.036440		0.441383		0.460803		95.287573		-3.580581		4.629828		-136.541667		22.557494		2.540840		12.968744		93.522110		-10.614302		5.567443		-134.745387		20.727848		29.499559		23.552582		-64.245205		-2.331168		0.656476		30.048088		-0.408923		-6.083642		79.657588		-38.501282		21.668577		68.752784		104.871681		-2.473595		-18.499084		-8.410335		71.017207		-29.267187		20.975379		57.331770		121.814109		-43.613814		-10.947031		-1.145588		
1.815025		-2.462896		8.145947		91.623783		0.036316		0.438035		0.459729		95.492997		-3.906900		4.769870		-137.185495		22.589201		2.879008		13.283978		93.652847		-10.725433		5.702455		-135.305786		20.906538		30.258479		23.293173		-64.643505		-2.148445		0.493046		30.221661		-0.558130		-6.216755		82.053682		-38.400850		23.142308		68.016332		104.393329		-2.664102		-18.659132		-8.444082		73.341106		-29.327254		22.400086		56.733435		120.813787		-43.856120		-10.689031		-1.471158		
